<?xml version="1.0" encoding="UTF-8"?>
<svg width="50" height="50" version="1.1" viewBox="0 0 800 800" xmlns="http://www.w3.org/2000/svg" xmlns:cc="http://creativecommons.org/ns#" xmlns:dc="http://purl.org/dc/elements/1.1/" xmlns:rdf="http://www.w3.org/1999/02/22-rdf-syntax-ns#">
 <metadata>
  <rdf:RDF>
   <cc:Work rdf:about="">
    <dc:format>image/svg+xml</dc:format>
    <dc:type rdf:resource="http://purl.org/dc/dcmitype/StillImage"/>
    <dc:title/>
   </cc:Work>
  </rdf:RDF>
 </metadata>
 <circle cx="400" cy="400" r="0"/>
 <circle cx="381.57" cy="416.89" r=".83333"/>
 <circle cx="403.09" cy="364.78" r="1.1785"/>
 <circle cx="426.35" cy="434.36" r="1.4434"/>
 <circle cx="350.76" cy="391.29" r="1.6667"/>
 <circle cx="447.17" cy="370" r="1.8634"/>
 <circle cx="384.1" cy="459.14" r="2.0412"/>
 <circle cx="369.51" cy="341.3" r="2.2048"/>
 <circle cx="466.42" cy="424.26" r="2.357"/>
 <circle cx="330.67" cy="428.62" r="2.5"/>
 <circle cx="433.51" cy="328.4" r="2.6352"/>
 <circle cx="424.82" cy="479.12" r="2.7639"/>
 <circle cx="325.07" cy="356.58" r="2.8868"/>
 <circle cx="488.04" cy="380.65" r="3.0046"/>
 <circle cx="346.2" cy="476.52" r="3.118"/>
 <circle cx="387.56" cy="303.98" r="3.2275"/>
 <circle cx="476.46" cy="464.44" r="3.3333"/>
 <circle cx="297.01" cy="404.26" r="3.4359"/>
 <circle cx="475.18" cy="325.18" r="3.5355"/>
 <circle cx="394.97" cy="508.86" r="3.6324"/>
 <circle cx="328.37" cy="314.16" r="3.7268"/>
 <circle cx="513.54" cy="415.28" r="3.8188"/>
 <circle cx="303.75" cy="466.97" r="3.9087"/>
 <circle cx="426.31" cy="283.03" r="3.9965"/>
 <circle cx="460.89" cy="506.26" r="4.0825"/>
 <circle cx="280.91" cy="362.01" r="4.1667"/>
 <circle cx="515.72" cy="346.53" r="4.2492"/>
 <circle cx="349.85" cy="519.83" r="4.3301"/>
 <circle cx="355.23" cy="275.52" r="4.4096"/>
 <circle cx="519.17" cy="462.63" r="4.4876"/>
 <circle cx="267.59" cy="434.9" r="4.5644"/>
 <circle cx="475.28" cy="282.92" r="4.6398"/>
 <circle cx="423.95" cy="539.38" r="4.714"/>
 <circle cx="286.46" cy="312.06" r="4.7871"/>
 <circle cx="545.28" cy="387.96" r="4.8591"/>
 <circle cx="299.56" cy="508.57" r="4.9301"/>
 <circle cx="400.73" cy="250" r="5"/>
 <circle cx="502.17" cy="512.63" r="5.069"/>
 <circle cx="246.55" cy="385.78" r="5.137"/>
 <circle cx="524.36" cy="305.61" r="5.2042"/>
 <circle cx="371.7" cy="555.56" r="5.2705"/>
 <circle cx="314.74" cy="264.52" r="5.3359"/>
 <circle cx="556.26" cy="442.82" r="5.4006"/>
 <circle cx="254.15" cy="474.85" r="5.4645"/>
 <circle cx="457.65" cy="244.51" r="5.5277"/>
 <circle cx="463.23" cy="555.33" r="5.5902"/>
 <circle cx="246.78" cy="327.39" r="5.6519"/>
 <circle cx="563.78" cy="349.5" r="5.713"/>
 <circle cx="312.42" cy="549.43" r="5.7735"/>
 <circle cx="363.26" cy="228.9" r="5.8333"/>
 <circle cx="544.12" cy="502.37" r="5.8926"/>
 <circle cx="222.83" cy="422.08" r="5.9512"/>
 <circle cx="516.85" cy="262.72" r="6.0093"/>
 <circle cx="406.63" cy="581.88" r="6.0668"/>
 <circle cx="271.05" cy="269.15" r="6.1237"/>
 <circle cx="585.16" cy="409.47" r="6.1802"/>
 <circle cx="255.78" cy="519.16" r="6.2361"/>
 <circle cx="426.08" cy="213.06" r="6.2915"/>
 <circle cx="507.98" cy="556.82" r="6.3465"/>
 <circle cx="212.86" cy="356.94" r="6.401"/>
 <circle cx="568.49" cy="304.54" r="6.455"/>
 <circle cx="339.75" cy="585.73" r="6.5085"/>
 <circle cx="318.31" cy="220.9" r="6.5617"/>
 <circle cx="582.67" cy="477.5" r="6.6144"/>
 <circle cx="211.48" cy="466.77" r="6.6667"/>
 <circle cx="494.64" cy="222.04" r="6.7185"/>
 <circle cx="450.81" cy="596.64" r="6.77"/>
 <circle cx="228.42" cy="288.49" r="6.8211"/>
 <circle cx="603.34" cy="366.07" r="6.8718"/>
 <circle cx="272.05" cy="563.56" r="6.9222"/>
 <circle cx="383.75" cy="191.47" r="6.9722"/>
 <circle cx="553.93" cy="543.8" r="7.0218"/>
 <circle cx="187.88" cy="397.93" r="7.0711"/>
 <circle cx="558.9" cy="257.26" r="7.12"/>
 <circle cx="379.11" cy="614.04" r="7.1686"/>
 <circle cx="269.95" cy="226.9" r="7.2169"/>
 <circle cx="614.23" cy="440.05" r="7.2648"/>
 <circle cx="213.76" cy="515.93" r="7.3125"/>
 <circle cx="459.4" cy="187.35" r="7.3598"/>
 <circle cx="500.49" cy="598.19" r="7.4068"/>
 <circle cx="190.72" cy="321.25" r="7.4536"/>
 <circle cx="608.81" cy="316.18" r="7.5"/>
 <circle cx="302.05" cy="604.1" r="7.5462"/>
 <circle cx="333.96" cy="182.02" r="7.592"/>
 <circle cx="597.11" cy="516.82" r="7.6376"/>
 <circle cx="174.42" cy="447.29" r="7.683"/>
 <circle cx="535.18" cy="211.65" r="7.728"/>
 <circle cx="427.71" cy="631.53" r="7.7728"/>
 <circle cx="222.16" cy="247.12" r="7.8174"/>
 <circle cx="635.73" cy="392.55" r="7.8617"/>
 <circle cx="230.26" cy="565.65" r="7.9057"/>
 <circle cx="413.34" cy="161.89" r="7.9495"/>
 <circle cx="551.83" cy="585.6" r="7.9931"/>
 <circle cx="161.39" cy="365.52" r="8.0364"/>
 <circle cx="600.3" cy="263.51" r="8.0795"/>
 <circle cx="344.2" cy="637.2" r="8.1223"/>
 <circle cx="280.3" cy="186.29" r="8.165"/>
 <circle cx="633.83" cy="477.12" r="8.2074"/>
 <circle cx="174.33" cy="501.6" r="8.2496"/>
 <circle cx="498.27" cy="171.49" r="8.2916"/>
 <circle cx="482.31" cy="636.06" r="8.3333"/>
 <circle cx="178.75" cy="280.95" r="8.3749"/>
 <circle cx="644.76" cy="338.03" r="8.4163"/>
 <circle cx="260.7" cy="612.06" r="8.4574"/>
 <circle cx="359.27" cy="148.32" r="8.4984"/>
 <circle cx="601" cy="558.82" r="8.5391"/>
 <circle cx="143.29" cy="418.75" r="8.5797"/>
 <circle cx="577.45" cy="211.89" r="8.6201"/>
 <circle cx="396.2" cy="659.78" r="8.6603"/>
 <circle cx="226.53" cy="204.98" r="8.7003"/>
 <circle cx="660.83" cy="426.74" r="8.7401"/>
 <circle cx="188.65" cy="557.18" r="8.7797"/>
 <circle cx="449.89" cy="140.17" r="8.8192"/>
 <circle cx="539.34" cy="626.29" r="8.8585"/>
 <circle cx="143.27" cy="326.94" r="8.8976"/>
 <circle cx="639.7" cy="279.93" r="8.9365"/>
 <circle cx="303.94" cy="651.54" r="8.9753"/>
 <circle cx="300.49" cy="148.56" r="9.0139"/>
 <circle cx="644.26" cy="518.69" r="9.0523"/>
 <circle cx="138.62" cy="477.8" r="9.0906"/>
 <circle cx="540.77" cy="165.09" r="9.1287"/>
 <circle cx="455.11" cy="669.42" r="9.1667"/>
 <circle cx="176.45" cy="237.9" r="9.2045"/>
 <circle cx="675.46" cy="368.4" r="9.2421"/>
 <circle cx="217.5" cy="610.22" r="9.2796"/>
 <circle cx="392.54" cy="120.59" r="9.3169"/>
 <circle cx="595.01" cy="601.79" r="9.3541"/>
 <circle cx="118.79" cy="382.87" r="9.3912"/>
 <circle cx="619.79" cy="221.98" r="9.4281"/>
 <circle cx="358.02" cy="680.83" r="9.4648"/>
 <circle cx="240.64" cy="163.66" r="9.5015"/>
 <circle cx="678.21" cy="466.88" r="9.5379"/>
 <circle cx="148.72" cy="539.14" r="9.5743"/>
 <circle cx="491.64" cy="126.64" r="9.6105"/>
 <circle cx="517.52" cy="664.46" r="9.6465"/>
 <circle cx="133.72" cy="283.95" r="9.6825"/>
 <circle cx="675.76" cy="305.35" r="9.7183"/>
 <circle cx="260.09" cy="657" r="9.7539"/>
 <circle cx="329.31" cy="114.95" r="9.7895"/>
 <circle cx="645.56" cy="563.02" r="9.8249"/>
 <circle cx="107.77" cy="445.83" r="9.8601"/>
 <circle cx="585.18" cy="167.98" r="9.8953"/>
 <circle cx="420.25" cy="697.22" r="9.9303"/>
 <circle cx="183.54" cy="193.79" r="9.9652"/>
 <circle cx="699.94" cy="405.85" r="10"/>
 <circle cx="174.1" cy="598.98" r="10.035"/>
 <circle cx="432.28" cy="99.653" r="10.069"/>
 <circle cx="579.69" cy="644.1" r="10.104"/>
 <circle cx="101.6" cy="341.19" r="10.138"/>
 <circle cx="660.63" cy="241.27" r="10.172"/>
 <circle cx="314.76" cy="694.08" r="10.206"/>
 <circle cx="263.75" cy="124.66" r="10.24"/>
 <circle cx="687.4" cy="511.36" r="10.274"/>
 <circle cx="111.91" cy="512.39" r="10.308"/>
 <circle cx="536.95" cy="121.62" r="10.341"/>
 <circle cx="487.34" cy="698.74" r="10.375"/>
 <circle cx="132.94" cy="238.19" r="10.408"/>
 <circle cx="707.2" cy="338.72" r="10.442"/>
 <circle cx="214.29" cy="653.5" r="10.475"/>
 <circle cx="365.6" cy="86.645" r="10.508"/>
 <circle cx="637.78" cy="608.47" r="10.541"/>
 <circle cx="82.861" cy="406.92" r="10.574"/>
 <circle cx="629.88" cy="179.99" r="10.607"/>
 <circle cx="379.04" cy="718.49" r="10.639"/>
 <circle cx="199.71" cy="150.23" r="10.672"/>
 <circle cx="717.37" cy="449.02" r="10.704"/>
 <circle cx="132.06" cy="578.77" r="10.737"/>
 <circle cx="477.04" cy="86.25" r="10.769"/>
 <circle cx="555.59" cy="684.24" r="10.801"/>
 <circle cx="92.361" cy="295.2" r="10.833"/>
 <circle cx="698.51" cy="269.08" r="10.865"/>
 <circle cx="267.93" cy="699.05" r="10.897"/>
 <circle cx="295.07" cy="89.371" r="10.929"/>
 <circle cx="688.03" cy="558.63" r="10.961"/>
 <circle cx="79.54" cy="477.82" r="10.992"/>
 <circle cx="584.26" cy="125.37" r="11.024"/>
 <circle cx="449.79" cy="727.9" r="11.055"/>
 <circle cx="141.06" cy="191.25" r="11.087"/>
 <circle cx="732.88" cy="378.95" r="11.118"/>
 <circle cx="168.12" cy="641.05" r="11.149"/>
 <circle cx="408.18" cy="64.69" r="11.18"/>
 <circle cx="621.08" cy="653.47" r="11.211"/>
 <circle cx="64.842" cy="362.33" r="11.242"/>
 <circle cx="673.33" cy="200.84" r="11.273"/>
 <circle cx="332.81" cy="732.39" r="11.304"/>
 <circle cx="224.54" cy="108.73" r="11.335"/>
 <circle cx="727.01" cy="496.52" r="11.365"/>
 <circle cx="92.855" cy="550.12" r="11.396"/>
 <circle cx="525.41" cy="80.981" r="11.426"/>
 <circle cx="523.35" cy="720.8" r="11.456"/>
 <circle cx="91.538" cy="246.37" r="11.487"/>
 <circle cx="732.09" cy="304.67" r="11.517"/>
 <circle cx="219.05" cy="695.39" r="11.547"/>
 <circle cx="333.72" cy="59.072" r="11.577"/>
 <circle cx="679.89" cy="607.15" r="11.607"/>
 <circle cx="52.798" cy="436.41" r="11.637"/>
 <circle cx="632.02" cy="137.95" r="11.667"/>
 <circle cx="405.94" cy="750.84" r="11.696"/>
 <circle cx="158.02" cy="144.67" r="11.726"/>
 <circle cx="751.79" cy="424.88" r="11.756"/>
 <circle cx="123.1" cy="619.84" r="11.785"/>
 <circle cx="455.82" cy="49.986" r="11.815"/>
 <circle cx="595.76" cy="696.53" r="11.844"/>
 <circle cx="54.5" cy="313.37" r="11.873"/>
 <circle cx="714.05" cy="230.08" r="11.902"/>
 <circle cx="282.92" cy="738.26" r="11.932"/>
 <circle cx="257.49" cy="70.695" r="11.961"/>
 <circle cx="728.32" cy="546.91" r="11.99"/>
 <circle cx="57.848" cy="513.72" r="12.019"/>
 <circle cx="575.9" cy="84.27" r="12.047"/>
 <circle cx="483.77" cy="752.47" r="12.076"/>
 <circle cx="99.429" cy="196.21" r="12.105"/>
 <circle cx="760.14" cy="347.11" r="12.134"/>
 <circle cx="169.62" cy="682.93" r="12.162"/>
 <circle cx="378.7" cy="34.902" r="12.191"/>
 <circle cx="662.94" cy="655.42" r="12.219"/>
 <circle cx="32.734" cy="389.25" r="12.247"/>
 <circle cx="678.72" cy="159.29" r="12.276"/>
 <circle cx="356.98" cy="766.61" r="12.304"/>
 <circle cx="183.59" cy="99.933" r="12.332"/>
 <circle cx="763.09" cy="475.25" r="12.36"/>
 <circle cx="80.713" cy="590.21" r="12.388"/>
 <circle cx="507.19" cy="43.263" r="12.416"/>
 <circle cx="562.3" cy="736.2" r="12.444"/>
 <circle cx="52.445" cy="261.42" r="12.472"/>
</svg>
